<?xml version="1.0" encoding="UTF-8"?>
<!-- LangChain icon. Source component: @lobehub/icons. Trademark belongs to its respective owner. -->
<svg fill="currentColor" fill-rule="evenodd" height="96" style="color:#111111;display:block" viewBox="0 0 24 24" width="96" xmlns="http://www.w3.org/2000/svg" aria-label="LangChain"><title>LangChain</title><path d="M7.531 15.976a7.534 7.534 0 000-10.651L2.206 0A7.537 7.537 0 000 5.326c0 1.996.794 3.913 2.206 5.325l5.325 5.325zM18.674 16.469a7.535 7.535 0 00-10.65 0l5.325 5.325a7.536 7.536 0 0010.651 0l-5.326-5.325zM2.218 21.782a7.536 7.536 0 005.326 2.206v-7.531H.012c0 1.996.795 3.914 2.206 5.325zM20.73 8.595a7.534 7.534 0 00-10.651.001l5.325 5.326 5.326-5.327z"></path></svg>
