<svg version="1.1" id="Layer_1" xmlns="http://www.w3.org/2000/svg" xmlns:xlink="http://www.w3.org/1999/xlink" x="0px" y="0px"
	 width="1095" height="311" viewBox="0 0 1095 311" enable-background="new 0 0 1095 311" xml:space="preserve">
<path fill="#05BBF7" opacity="1.000000" stroke="none" 
	d="
M211.466095,142.922760 
	C209.594406,141.041916 206.949158,139.421356 206.783600,137.578094 
	C206.151428,130.539368 205.599365,123.343102 206.431976,116.374687 
	C207.012085,111.519409 211.690140,109.322075 216.550583,108.973419 
	C220.200302,108.711617 223.881500,108.926277 227.543015,108.783516 
	C234.417084,108.515503 238.709961,104.325562 239.033234,97.455307 
	C239.221054,93.464027 239.015244,89.455620 239.139755,85.459686 
	C239.359924,78.394470 243.771057,74.060974 250.859863,73.918777 
	C254.857361,73.838577 258.861511,73.812325 262.856476,73.946289 
	C269.045685,74.153847 273.163330,78.079376 273.511627,84.258331 
	C273.755127,88.578705 273.787994,92.927689 273.609894,97.251320 
	C273.316559,104.373459 268.928528,108.626038 261.842926,108.877968 
	C259.013428,108.978569 256.177246,108.871826 253.345062,108.918495 
	C245.454117,109.048523 240.576340,113.648560 240.135452,121.548889 
	C239.940704,125.038101 240.162659,128.548630 240.047653,132.044617 
	C239.797165,139.660049 235.697968,143.918503 228.204758,143.918350 
	C222.746948,143.918228 217.289154,143.379425 211.466095,142.922760 
z"/>
<path fill="#036ED1" opacity="1.000000" stroke="none" 
	d="
M239.665039,171.849274 
	C239.963348,182.333801 243.915497,186.264984 253.667953,186.285950 
	C256.665527,186.292389 259.671417,186.240280 262.658661,186.438797 
	C268.858490,186.850830 273.055725,190.628876 273.547241,196.732285 
	C273.920044,201.361725 273.935242,206.075806 273.521088,210.699509 
	C272.921265,217.395996 268.599091,220.990906 261.834595,221.054077 
	C258.004150,221.089859 254.170853,221.173416 250.343155,221.072281 
	C243.339355,220.887283 239.267685,216.823105 239.034302,209.793152 
	C238.912796,206.132767 239.127197,202.459290 238.953491,198.802963 
	C238.584366,191.033615 234.288300,186.954056 226.547028,186.837204 
	C223.716095,186.794464 220.883514,186.841446 218.053268,186.777344 
	C209.697006,186.588104 205.384521,182.359512 205.206970,174.104919 
	C205.124634,170.276352 205.054123,166.435120 205.264755,162.615448 
	C205.605591,156.434204 209.604797,152.380692 215.689178,152.059204 
	C220.152115,151.823410 224.666031,151.537125 229.096619,151.940018 
	C235.976151,152.565598 239.090866,155.994858 239.636292,162.891800 
	C239.858765,165.705032 239.668030,168.550919 239.665039,171.849274 
z"/>
<path fill="#036DD0" opacity="1.000000" stroke="none" 
	d="
M161.842163,121.581818 
	C159.922714,111.661903 156.596832,108.939186 146.812775,108.867722 
	C131.545868,108.756210 129.173340,106.373688 129.216171,91.198120 
	C129.222275,89.033722 129.163345,86.866974 129.243576,84.705368 
	C129.461304,78.839699 133.291519,74.578156 139.133377,74.150909 
	C143.607285,73.823700 148.127228,73.782234 152.609070,73.991524 
	C158.653595,74.273758 162.790085,78.566551 163.035995,84.595032 
	C163.191925,88.417885 163.013397,92.253128 163.072586,96.081459 
	C163.190521,103.709618 167.760712,108.479706 175.444046,108.922348 
	C178.098938,109.075310 180.770157,108.937317 183.433868,108.945969 
	C190.909897,108.970261 195.054352,112.411606 195.718674,119.794670 
	C196.134750,124.418915 196.101761,129.128357 195.771530,133.764053 
	C195.320312,140.098114 191.435013,143.646698 184.981033,143.949203 
	C180.994339,144.136047 176.986603,144.110123 172.997269,143.952820 
	C166.075577,143.679947 162.244156,139.878357 161.939285,133.007339 
	C161.777069,129.351517 161.889130,125.683510 161.842163,121.581818 
z"/>
<path fill="#05BAF7" opacity="1.000000" stroke="none" 
	d="
M164.178925,156.363861 
	C167.491089,154.650528 170.500366,152.178802 173.641479,151.998032 
	C190.500839,151.027771 197.055649,150.937485 195.842300,171.651352 
	C195.793716,172.480652 195.861649,173.316147 195.852631,174.148499 
	C195.762878,182.430725 191.477539,187.078964 183.106781,186.584747 
	C165.545380,185.547943 162.282272,191.732834 162.970871,206.818436 
	C163.438797,217.070084 159.192596,221.083160 149.085434,221.147934 
	C145.922241,221.168198 142.751389,221.242661 139.596695,221.066116 
	C133.709839,220.736664 129.642365,216.768631 129.367096,210.856293 
	C129.150528,206.205460 129.170898,201.523834 129.433044,196.875473 
	C129.758087,191.112366 133.918411,187.072845 139.760544,186.634293 
	C142.910172,186.397873 146.083847,186.488541 149.246262,186.414520 
	C157.596710,186.219040 161.527466,182.097290 162.007858,173.751343 
	C162.336761,168.037079 163.272446,162.357727 164.178925,156.363861 
z"/>
<path fill="#E9EEF4" opacity="1.000000" stroke="none" 
	d="
M666.834900,170.035736 
	C664.962646,171.149307 663.090454,172.262878 660.261108,173.945724 
	C660.261108,151.867554 660.261108,131.605759 660.261108,111.194374 
	C663.809143,110.068871 666.545166,110.839493 669.390137,113.784721 
	C683.964294,128.872574 698.799194,143.708237 713.498047,158.676178 
	C714.645752,159.844955 715.449097,161.352020 716.412476,162.701843 
	C716.855530,162.440018 717.298523,162.178207 717.741577,161.916397 
	C717.741577,145.064743 717.741577,128.213104 717.741577,111.104736 
	C720.188965,111.104736 722.104858,111.104736 724.284607,111.104736 
	C724.284607,131.563629 724.284607,151.802200 724.284607,171.986008 
	C720.170227,173.672592 717.587830,171.992996 714.921997,169.236542 
	C701.613708,155.475937 688.145386,141.870163 674.303589,127.766556 
	C671.806091,125.085052 669.738403,122.846886 666.834900,119.704079 
	C666.834900,137.534912 666.834900,153.785324 666.834900,170.035736 
z"/>
<path fill="#E9EEF4" opacity="1.000000" stroke="none" 
	d="
M793.982300,172.647461 
	C786.191467,172.644073 778.897522,172.644073 771.262756,172.644073 
	C771.262756,151.878326 771.262756,131.530289 771.262756,111.005753 
	C783.415100,111.005753 795.439209,110.227814 807.322021,111.191505 
	C824.345825,112.572128 835.950623,125.810646 835.918213,142.154785 
	C835.886719,158.039932 824.016174,170.396103 806.935486,172.135040 
	C802.808655,172.555176 798.632568,172.491837 793.982300,172.647461 
M777.706299,116.853951 
	C777.505310,119.297104 777.140015,121.739609 777.130371,124.183517 
	C777.074707,138.266937 777.103271,152.350693 777.103271,166.511276 
	C787.521912,166.511276 797.550903,167.455688 807.327759,166.288391 
	C821.745422,164.567001 829.686462,154.152267 829.048767,140.063339 
	C828.452942,126.899422 819.343262,117.824226 805.056763,116.913765 
	C796.280029,116.354431 787.448730,116.649643 777.706299,116.853951 
z"/>
<path fill="#E4E8EE" opacity="1.000000" stroke="none" 
	d="
M463.002838,172.992798 
	C462.118896,172.849991 461.234924,172.707169 460.266174,171.821136 
	C460.180481,152.799973 460.154541,134.521896 460.215759,116.244141 
	C460.222229,114.323212 460.742889,112.404007 461.025024,110.484001 
	C473.306641,110.581314 485.592468,110.511955 497.868835,110.819023 
	C512.516235,111.185417 520.772461,121.583191 518.058838,135.849533 
	C516.402039,144.559937 508.086853,150.873764 497.304291,151.126984 
	C487.350739,151.360733 477.387329,151.176743 466.705322,151.176743 
	C466.705322,158.204956 466.705322,164.961823 466.672607,172.200302 
	C466.639923,172.681915 466.561798,172.725266 466.561798,172.725250 
	C465.912598,172.744141 465.263367,172.763016 464.056641,172.796829 
	C463.333679,172.872131 463.168274,172.932480 463.002838,172.992798 
M467.197113,144.869934 
	C477.135803,144.914001 487.074463,144.958069 497.805115,145.133972 
	C499.435089,144.830673 501.113831,144.684570 502.686371,144.196320 
	C508.811096,142.294739 512.390320,136.785522 512.067322,129.953979 
	C511.765289,123.566132 507.557892,117.572052 501.466888,117.242813 
	C490.078430,116.627220 478.632935,117.065811 466.996460,117.065811 
	C466.996460,126.087944 466.996460,135.033035 467.197113,144.869934 
z"/>
<path fill="#E8EDF3" opacity="1.000000" stroke="none" 
	d="
M985.751831,148.120117 
	C990.059265,156.209854 994.176086,163.980896 998.407349,171.967987 
	C993.975098,173.644409 990.857910,172.969406 989.185852,168.475998 
	C988.956116,167.858643 988.433044,167.336578 988.266724,166.711563 
	C985.341675,155.720871 978.210144,152.252258 967.242554,153.844360 
	C961.045898,154.743881 954.592346,153.730515 948.284363,154.094925 
	C946.436646,154.201660 944.104675,155.671432 943.019470,157.230042 
	C940.658020,160.621597 938.605957,164.332764 937.076111,168.171799 
	C935.281494,172.675369 932.373840,173.669922 927.637390,172.203720 
	C933.273560,161.605927 938.867371,151.085953 944.463074,140.567017 
	C948.995239,132.047379 953.481567,123.502808 958.098083,115.029137 
	C959.208008,112.991859 959.849854,110.632675 963.322937,110.657021 
	C966.765686,110.681137 967.381470,112.910042 968.492310,115.036232 
	C974.194702,125.951302 979.873901,136.878464 985.751831,148.120117 
M948.187317,147.097137 
	C958.044556,147.615601 967.901733,148.134064 978.929993,148.714127 
	C973.375061,137.914688 968.552979,128.540024 963.293457,118.314980 
	C958.063538,128.175491 953.248840,137.253113 948.187317,147.097137 
z"/>
<path fill="#E8ECF2" opacity="1.000000" stroke="none" 
	d="
M596.560547,127.267326 
	C604.501526,142.278091 612.253479,156.971603 620.196777,172.027710 
	C615.978210,173.327805 613.108887,173.055298 611.138062,168.761795 
	C608.861267,163.801575 607.118713,157.259369 603.080566,154.819427 
	C599.022766,152.367615 592.427124,154.080902 586.943115,154.034134 
	C581.112427,153.984406 575.270996,153.820847 569.456726,154.129547 
	C567.870728,154.213760 565.812195,155.454941 564.929932,156.796219 
	C562.561340,160.397461 560.411011,164.213318 558.738220,168.181747 
	C556.982056,172.347916 554.322449,173.633163 549.554016,172.147202 
	C552.329895,166.854874 555.038269,161.635391 557.796875,156.442642 
	C565.368225,142.190811 572.900269,127.917168 580.641113,113.757843 
	C581.392029,112.384216 583.487061,110.977562 584.957397,110.978355 
	C586.464172,110.979179 588.537048,112.346718 589.370728,113.718575 
	C591.957397,117.975273 594.073059,122.518204 596.560547,127.267326 
M576.657410,148.175568 
	C584.352661,148.175568 592.047913,148.175568 600.558533,148.175568 
	C595.216614,137.846390 590.377258,128.488968 585.124207,118.331528 
	C579.729553,128.553711 574.740540,138.007248 569.376465,148.171432 
	C572.115662,148.171432 573.914368,148.171432 576.657410,148.175568 
z"/>
<path fill="#E8EEF3" opacity="1.000000" stroke="none" 
	d="
M360.512695,112.343353 
	C363.784271,109.718979 366.821869,110.033081 369.619110,113.373764 
	C376.214355,121.250229 382.913696,129.039536 389.817719,137.154144 
	C396.306213,129.633820 402.696198,122.644691 408.571655,115.246902 
	C411.641052,111.382263 414.946625,109.796577 420.390533,111.349945 
	C411.580994,121.562469 402.972168,131.542267 394.045197,141.890900 
	C402.753387,151.902908 411.417969,161.864777 420.403656,172.195847 
	C415.546021,173.292664 412.312317,172.635666 409.350006,168.954590 
	C403.212585,161.327957 396.573853,154.104797 389.782318,146.303436 
	C383.490875,153.629517 377.258698,160.494644 371.507233,167.741287 
	C368.408661,171.645340 365.106720,173.737305 359.367340,172.140472 
	C368.067535,162.025803 376.574951,152.135315 385.490662,141.770096 
	C377.253265,132.069199 368.999359,122.348900 360.512695,112.343353 
z"/>
<path fill="#ECF0F5" opacity="1.000000" stroke="none" 
	d="
M880.312378,127.905174 
	C880.410889,126.223396 880.509338,124.541618 880.576538,122.179276 
	C880.471680,121.310493 880.398193,121.122292 880.324707,120.934090 
	C880.418762,118.584999 880.512756,116.235916 880.575989,113.198860 
	C880.482666,112.324722 880.420166,112.138550 880.357605,111.952377 
	C882.314087,111.458168 884.270569,110.963959 886.687622,110.353401 
	C886.687622,131.501389 886.687622,151.920883 886.687622,172.511108 
	C883.570740,172.688858 880.188049,173.875381 880.612549,167.998215 
	C880.505249,164.100647 880.412598,160.999817 880.319946,157.898987 
	C880.416199,156.873627 880.512512,155.848267 880.596863,154.011353 
	C880.501648,150.097626 880.418396,146.995438 880.335083,143.893265 
	C880.432800,143.186508 880.530579,142.479767 880.617004,140.981720 
	C880.507935,136.095352 880.410156,132.000259 880.312378,127.905174 
z"/>
<path fill="#C9D6E3" opacity="1.000000" stroke="none" 
	d="
M442.918121,205.928665 
	C447.079285,210.329239 448.116058,215.983902 445.740875,219.784073 
	C443.317810,223.660919 437.486511,224.459183 429.316528,221.733719 
	C429.316528,223.565140 429.370819,225.190002 429.300598,226.809479 
	C429.236084,228.295944 429.037384,229.776611 427.811249,231.245605 
	C426.105865,222.636719 426.265259,214.003479 426.455139,204.902557 
	C432.073273,205.186523 437.335175,205.452469 442.918121,205.928665 
M439.054962,221.141861 
	C443.839813,218.626923 445.329834,214.964050 443.317871,210.662659 
	C441.629395,207.052963 437.288177,205.473618 433.606506,207.377502 
	C430.309174,209.082672 428.786224,212.049973 429.575989,215.664246 
	C430.563080,220.181396 433.944153,221.569153 439.054962,221.141861 
z"/>
<path fill="#CED9E6" opacity="1.000000" stroke="none" 
	d="
M397.003967,220.220825 
	C396.998688,214.834244 396.998688,209.907150 396.998688,203.526398 
	C398.955292,205.267502 399.862000,206.074326 400.781677,206.892700 
	C406.442780,203.227036 410.887665,203.240479 414.656281,206.999329 
	C418.005737,210.340118 418.456665,215.878494 415.700226,219.821579 
	C412.594543,224.264267 407.751526,224.929398 399.983978,221.621155 
	C399.983978,224.062927 400.123749,226.289413 399.917633,228.483398 
	C399.830780,229.408203 399.014252,230.264465 398.529388,231.151886 
	C397.998962,230.319031 397.071320,229.513275 397.012299,228.648239 
	C396.831879,226.004486 396.985535,223.337967 397.003967,220.220825 
M414.902710,214.433212 
	C414.406097,210.236282 412.642700,207.103058 407.967133,206.792282 
	C404.259918,206.545868 401.513062,208.141724 400.301361,211.768570 
	C398.936493,215.854004 400.840149,219.731781 404.678375,220.998352 
	C409.379608,222.549683 412.766998,220.620132 414.902710,214.433212 
z"/>
<path fill="#C9D6E3" opacity="1.000000" stroke="none" 
	d="
M554.764038,218.120636 
	C550.759216,210.010742 552.662231,202.595352 559.395752,198.930634 
	C566.019714,195.325531 574.097656,196.563080 578.023804,202.687195 
	C567.680908,198.568298 556.042480,196.411377 555.978394,210.335602 
	C555.911560,224.840897 567.808105,221.948334 578.102966,218.069305 
	C573.039978,226.051102 562.234070,225.740234 554.764038,218.120636 
z"/>
<path fill="#CBD6E3" opacity="1.000000" stroke="none" 
	d="
M512.540588,222.753204 
	C507.550323,218.660660 506.369965,213.575470 509.048767,208.985001 
	C511.931335,204.045364 516.748779,203.268051 524.999146,206.578217 
	C524.999146,204.007675 524.901123,201.546997 525.057007,199.102524 
	C525.105774,198.337677 525.839111,197.616501 526.259094,196.875336 
	C526.817139,197.490189 527.852600,198.098740 527.860779,198.720856 
	C527.969238,206.934525 527.933105,215.150085 527.933105,222.426132 
	C525.045471,222.822906 523.069580,223.287582 521.086548,223.320007 
	C518.353882,223.364700 515.615845,223.082916 512.540588,222.753204 
M522.964417,219.619110 
	C525.677368,216.610718 526.154602,212.906204 523.610962,210.132004 
	C521.918274,208.285904 518.336365,206.900681 515.964478,207.328690 
	C513.856323,207.709106 511.272278,210.626678 510.711761,212.876236 
	C510.204895,214.910553 511.550934,218.129486 513.151062,219.800186 
	C515.690186,222.451248 519.161865,222.115311 522.964417,219.619110 
z"/>
<path fill="#D2DDEA" opacity="1.000000" stroke="none" 
	d="
M874.980347,229.083328 
	C875.124329,228.398346 875.268372,227.713348 876.065186,226.976410 
	C885.157715,231.218582 890.366028,229.095840 890.327454,221.765198 
	C887.444580,222.418823 884.427673,223.867447 881.574219,223.596313 
	C874.894043,222.961517 872.240295,217.182892 874.339966,209.115875 
	C874.563660,208.642593 874.787354,208.169312 875.392578,207.331482 
	C879.357056,206.300430 882.917908,205.387436 886.531555,205.064743 
	C888.528320,204.886429 890.613403,205.697495 893.366638,206.188919 
	C893.366638,211.832397 893.366638,218.434570 893.366577,225.036743 
	C893.221863,225.407944 893.077148,225.779175 892.614380,226.657608 
	C887.819458,232.231628 882.625916,232.807037 874.980347,229.083328 
M884.234619,221.242844 
	C888.689758,220.119308 891.351379,217.549866 890.388916,212.691971 
	C889.569214,208.554489 886.722534,206.342407 882.523987,206.668289 
	C878.401794,206.988235 876.511047,209.865570 876.186096,213.743881 
	C875.819336,218.120361 878.133057,220.447632 884.234619,221.242844 
z"/>
<path fill="#CED9E6" opacity="1.000000" stroke="none" 
	d="
M365.696930,220.871628 
	C364.716980,221.921539 363.737030,222.971451 362.757111,224.021362 
	C362.313263,223.731598 361.869415,223.441818 361.425568,223.152054 
	C362.028503,221.794418 362.582672,220.412567 363.242706,219.083267 
	C366.487946,212.547363 369.745270,206.017365 373.031799,199.502136 
	C374.529816,196.532379 376.308472,196.125580 377.866913,199.372498 
	C381.587585,207.124252 385.173523,214.940674 388.813873,222.730972 
	C388.338989,223.072281 387.864075,223.413589 387.389191,223.754883 
	C386.178833,221.967346 384.968506,220.179825 383.378418,217.760742 
	C378.494537,216.910019 373.987762,216.526489 369.488190,216.597595 
	C368.476349,216.613586 367.489532,218.217224 366.491180,219.089981 
	C366.491180,219.089981 366.219452,219.342621 366.060303,219.690186 
	C365.732788,220.291168 365.664703,220.569122 365.696930,220.871628 
M375.553192,201.129684 
	C373.395050,205.239471 371.236908,209.349258 368.923798,213.754150 
	C373.607727,213.754150 377.323425,213.754150 381.626831,213.754150 
	C379.621063,209.409622 377.835175,205.541275 375.553192,201.129684 
z"/>
<path fill="#C9D6E3" opacity="1.000000" stroke="none" 
	d="
M497.500519,221.910278 
	C488.953400,225.883575 481.807800,223.113846 480.929626,215.791443 
	C480.191406,209.636215 484.004791,204.610962 489.785278,204.121567 
	C495.608307,203.628586 499.567871,207.698471 499.779144,214.996994 
	C494.609528,214.996994 489.416107,214.996994 484.145294,214.996994 
	C485.189362,221.193451 489.186737,222.840622 495.424255,220.223007 
	C497.765472,219.240494 497.765472,219.240509 497.500519,221.910278 
M494.420563,207.745361 
	C488.004181,205.706680 485.288055,206.979034 484.348877,212.487152 
	C488.517639,212.487152 492.672638,212.487152 497.709656,212.487152 
	C496.550293,210.618698 495.812073,209.428909 494.420563,207.745361 
z"/>
<path fill="#C9D6E3" opacity="1.000000" stroke="none" 
	d="
M691.916626,213.278397 
	C694.086792,204.254044 700.303406,201.969101 708.214844,206.609085 
	C709.165833,205.789383 710.023071,205.050537 711.660522,203.639130 
	C711.660522,210.905334 711.660522,217.073639 711.660522,222.479507 
	C709.085876,222.874008 706.683655,222.893509 704.533875,223.640167 
	C699.173279,225.502014 691.022583,221.106216 691.916626,213.278397 
M708.375244,217.559723 
	C709.689758,212.128845 708.076843,208.042969 704.029114,207.034424 
	C700.461426,206.145493 697.253296,206.922028 695.604248,210.492508 
	C694.022278,213.917542 694.029358,217.535278 697.431641,219.887863 
	C701.221191,222.508179 704.940491,222.004761 708.375244,217.559723 
z"/>
<path fill="#CED9E6" opacity="1.000000" stroke="none" 
	d="
M601.954163,222.896088 
	C600.314880,222.905304 598.848022,223.150665 597.444092,223.594681 
	C592.257507,225.235107 587.380554,222.372345 586.935791,217.007614 
	C586.596130,212.911026 586.868286,208.763702 586.868286,204.638947 
	C587.504517,204.605667 588.140747,204.572403 588.777039,204.539124 
	C589.018738,205.930908 589.406860,207.316269 589.468323,208.715958 
	C589.562866,210.870956 589.319580,213.041351 589.425232,215.195114 
	C589.588013,218.512558 590.867676,221.063766 594.658447,221.235352 
	C598.585571,221.413101 601.144836,219.451126 601.552002,215.594421 
	C601.924927,212.062012 601.631165,208.459198 601.631165,203.485657 
	C603.449158,205.102814 604.554810,205.620209 604.575195,206.177353 
	C604.757690,211.158539 604.856445,216.150574 604.677856,221.128586 
	C604.651794,221.856079 603.035828,222.526550 601.954163,222.896088 
z"/>
<path fill="#CED9E6" opacity="1.000000" stroke="none" 
	d="
M997.998474,219.552933 
	C996.674194,224.133194 992.950256,224.250122 989.463318,223.900635 
	C985.412903,223.494659 982.191711,221.297134 981.116455,217.118622 
	C979.986145,212.726074 981.049988,208.785858 984.905457,206.087967 
	C988.127563,203.833282 991.680603,203.347778 995.231262,205.407898 
	C998.838074,207.500580 1000.115479,210.627090 998.718018,215.153137 
	C995.436218,214.824234 991.948242,214.218124 988.465515,214.246719 
	C986.988159,214.258835 985.521667,215.602646 984.050232,216.341248 
	C985.185181,217.852020 986.273865,220.595230 987.463806,220.639847 
	C990.882751,220.768066 994.342651,219.804749 997.998474,219.552933 
M989.707703,206.727814 
	C986.526306,207.325058 984.329346,208.830063 984.191956,212.671265 
	C988.496155,212.671265 992.565002,212.671265 996.652222,212.671265 
	C996.059814,208.043198 995.640747,207.639099 989.707703,206.727814 
z"/>
<path fill="#CBD6E3" opacity="1.000000" stroke="none" 
	d="
M814.863831,223.565796 
	C810.289917,221.410843 808.141418,217.894302 808.743103,212.785233 
	C809.274841,208.269897 811.847107,205.395584 816.150879,204.494156 
	C820.854736,203.508911 824.605347,205.303955 827.248413,210.232254 
	C829.073975,215.494949 825.769653,215.096359 822.574829,215.170929 
	C818.732056,215.071991 815.344360,215.071991 811.654419,215.071991 
	C811.970581,219.595688 814.749573,220.948196 818.325195,221.827652 
	C818.891541,221.597824 819.170105,221.348373 819.585999,221.176056 
	C819.723328,221.253204 819.979370,221.069626 820.280762,221.073273 
	C820.785217,220.735825 820.988220,220.394699 821.407715,220.042114 
	C821.624207,220.030640 822.016968,219.847122 822.383179,219.895721 
	C823.854980,219.891296 824.960571,219.838257 826.066040,219.785217 
	C825.583252,220.709244 825.100403,221.633270 824.617554,222.557297 
	C824.617615,222.557312 824.555603,222.816101 824.198608,222.796906 
	C820.849060,223.040405 817.856445,223.303101 814.863831,223.565796 
M823.899414,209.544556 
	C821.261902,208.688919 818.578064,207.084930 816.003357,207.244308 
	C814.324646,207.348206 812.804504,210.014267 811.213318,211.532562 
	C811.491150,211.946701 811.768982,212.360825 812.046814,212.774963 
	C815.610413,212.774963 819.180298,212.878235 822.730957,212.663452 
	C823.262451,212.631302 823.703613,211.107986 823.899414,209.544556 
z"/>
<path fill="#C9D6E3" opacity="1.000000" stroke="none" 
	d="
M905.438843,221.990845 
	C901.531555,217.549164 900.857056,212.927780 904.136597,207.642883 
	C904.277649,207.302536 904.264160,207.282455 904.563293,207.151184 
	C906.266418,206.125259 907.670410,205.230591 909.074402,204.335907 
	C909.511169,204.283432 909.947937,204.230972 911.064941,204.140747 
	C914.474121,205.444733 917.203003,206.786438 919.931946,208.128143 
	C920.197754,210.382599 920.463562,212.637039 919.923950,214.991669 
	C914.536255,215.091843 909.954041,215.091843 904.472107,215.091843 
	C907.882019,223.894302 913.823486,221.761383 919.983582,218.958328 
	C919.971619,219.499756 919.959717,220.041183 919.947754,220.582611 
	C918.702759,221.485886 917.457764,222.389160 916.212769,223.292450 
	C915.646973,223.451630 915.081116,223.610794 913.861816,223.858154 
	C911.132141,223.646927 909.056091,223.347519 906.979980,223.048111 
	C906.553711,222.719696 906.127380,222.391266 905.438843,221.990845 
M906.569885,208.971542 
	C906.060242,210.094864 905.550598,211.218185 904.987976,212.458252 
	C909.732300,212.458252 913.925354,212.458252 918.226929,212.458252 
	C916.415833,206.382324 913.038025,205.255569 906.569885,208.971542 
z"/>
<path fill="#C7D3E1" opacity="1.000000" stroke="none" 
	d="
M967.718811,224.034698 
	C959.932678,223.294006 956.174011,219.359787 956.751465,212.993683 
	C957.239319,207.616425 962.428650,203.416916 968.052917,204.231552 
	C969.979919,204.510666 971.760193,205.802475 973.371460,207.445267 
	C968.448181,206.912766 963.302795,205.016098 960.688477,210.667328 
	C959.693604,212.817963 959.914978,216.515793 961.164246,218.524490 
	C964.189819,223.389328 968.958618,220.860489 973.222229,219.657349 
	C973.428833,220.194580 973.635376,220.731812 973.841980,221.269043 
	C971.934082,222.184189 970.026245,223.099335 967.718811,224.034698 
z"/>
<path fill="#C7D3E1" opacity="1.000000" stroke="none" 
	d="
M794.417603,199.512115 
	C794.753540,201.279282 794.869080,202.742264 794.990234,204.275711 
	C796.996521,204.610016 798.780457,204.907242 800.564331,205.204483 
	C800.568909,205.659637 800.573547,206.114807 800.578125,206.569962 
	C798.932861,206.807236 797.287659,207.044495 794.953735,207.381073 
	C794.953735,211.156097 794.402039,215.176804 795.230713,218.889435 
	C795.553101,220.333847 798.988525,221.083435 801.860291,222.600998 
	C800.173584,223.051636 798.062744,224.349411 796.879639,223.765976 
	C794.927368,222.803146 792.598022,220.836258 792.182068,218.913055 
	C791.429382,215.433075 791.968933,211.673584 791.968933,207.804092 
	C790.495789,207.301743 789.229797,206.870010 786.691772,206.004517 
	C789.105225,205.056900 790.313538,204.582474 791.521851,204.108032 
	C791.283081,203.935852 791.044373,203.763672 790.805603,203.591476 
	C791.936157,202.130310 793.066711,200.669128 794.417603,199.512115 
z"/>
<path fill="#D7E0EC" opacity="1.000000" stroke="none" 
	d="
M631.683777,223.555511 
	C627.303528,220.869125 629.082092,216.828751 628.752991,213.378906 
	C628.462646,210.335175 630.201599,206.423538 625.731079,206.395050 
	C627.227112,203.795059 628.561768,201.475540 630.481262,198.139542 
	C630.898621,200.571686 631.193604,202.290955 631.541321,204.317657 
	C633.405212,204.596909 635.376648,204.892273 637.348083,205.187653 
	C637.356567,205.619247 637.364990,206.050858 637.373474,206.482452 
	C635.457947,206.780838 633.542480,207.079208 631.183777,207.446625 
	C631.183777,209.832016 631.173950,212.117126 631.185547,214.402145 
	C631.221558,221.467209 631.264709,221.507996 637.787170,221.143372 
	C636.695862,224.032059 636.695862,224.032059 631.683777,223.555511 
z"/>
<path fill="#ECF0F5" opacity="1.000000" stroke="none" 
	d="
M836.651001,222.287964 
	C836.576477,217.970642 836.631714,213.929428 836.567017,209.436798 
	C836.646118,204.952408 836.845154,200.919418 837.044189,196.886414 
	C837.463501,196.801651 837.882812,196.716904 838.302124,196.632141 
	C838.670410,197.465027 839.349609,198.294769 839.358154,199.131287 
	C839.432129,206.435410 839.380981,213.740768 839.379211,221.045746 
	C839.378723,223.067108 839.113953,224.567032 836.651001,222.287964 
z"/>
<path fill="#CBD6E3" opacity="1.000000" stroke="none" 
	d="
M749.735229,218.578568 
	C749.737122,211.234650 749.737122,204.341156 749.737122,196.787598 
	C753.399902,199.430191 753.897339,219.915070 750.632080,224.604294 
	C750.240662,222.175919 749.987061,220.602463 749.735229,218.578568 
z"/>
<path fill="#D2DDEA" opacity="1.000000" stroke="none" 
	d="
M673.791138,215.840576 
	C673.780823,211.947739 673.780823,208.513611 673.780823,205.431534 
	C678.147827,205.225967 681.960510,205.046478 685.773193,204.867004 
	C685.860718,205.153992 685.948303,205.440979 686.035889,205.727982 
	C685.153259,206.176056 684.219238,207.088760 683.396240,206.997742 
	C677.512695,206.347000 677.046509,210.359421 676.798279,214.496185 
	C676.617432,217.510498 676.660828,220.538239 676.604248,223.559998 
	C675.806152,223.562149 675.008057,223.564301 674.209961,223.566452 
	C674.073792,221.144073 673.937683,218.721680 673.791138,215.840576 
z"/>
<path fill="#CBD6E3" opacity="1.000000" stroke="none" 
	d="
M614.040222,212.950912 
	C614.045837,207.984802 613.989807,203.507095 614.122009,199.034943 
	C614.143799,198.299210 614.991394,197.587891 615.457397,196.865326 
	C615.989685,197.342407 616.980530,197.814270 616.985962,198.297318 
	C617.080688,206.645309 617.054199,214.994690 616.300354,223.418625 
	C612.879272,220.608856 614.628418,216.766403 614.040222,212.950912 
z"/>
<path fill="#CED9E6" opacity="1.000000" stroke="none" 
	d="
M661.190186,221.936218 
	C648.071838,225.541199 646.080688,223.906693 646.010376,209.468811 
	C646.004761,208.316040 645.671326,207.007141 646.100220,206.041702 
	C647.098083,203.795074 648.234192,204.069962 649.011475,207.110123 
	C648.986328,209.732574 648.627258,211.631500 649.027771,213.353760 
	C649.620117,215.900528 650.167175,219.779800 651.799500,220.434708 
	C653.934387,221.291245 657.108948,219.556396 660.098694,219.071808 
	C660.637512,220.116898 660.913818,221.026566 661.190186,221.936218 
z"/>
<path fill="#CBD6E3" opacity="1.000000" stroke="none" 
	d="
M721.871582,204.090942 
	C721.869202,201.394180 721.869202,199.154236 721.869202,196.511398 
	C725.349670,198.591339 725.998291,219.136612 722.047668,223.589035 
	C721.989807,217.241943 721.931946,210.894867 721.871582,204.090942 
z"/>
<path fill="#C9D6E3" opacity="1.000000" stroke="none" 
	d="
M766.970642,206.979080 
	C769.928284,206.207108 773.302063,204.205048 775.721741,205.023468 
	C777.956177,205.779251 780.025085,209.368851 780.622131,212.053787 
	C781.448853,215.772186 780.829712,219.812073 780.829712,223.714310 
	C779.870972,223.712540 778.912231,223.710785 777.953491,223.709030 
	C777.953491,220.486969 777.980042,217.264633 777.947937,214.042892 
	C777.881470,207.373703 775.352112,205.659805 768.269043,207.702728 
	C767.496948,207.401047 767.233826,207.190063 766.970642,206.979080 
z"/>
<path fill="#C9D6E3" opacity="1.000000" stroke="none" 
	d="
M455.963501,212.385941 
	C455.933258,207.003311 455.933258,202.077194 455.933258,196.708038 
	C459.531311,198.900360 460.016235,219.967911 455.993774,223.666916 
	C455.993774,220.058762 455.993774,216.450592 455.963501,212.385941 
z"/>
<path fill="#C7D3E1" opacity="1.000000" stroke="none" 
	d="
M852.179565,197.659012 
	C852.255798,205.671082 852.196472,213.400391 852.240601,221.592010 
	C851.637939,222.547714 850.931885,223.041122 850.225769,223.534531 
	C849.864258,222.535461 849.192383,221.536987 849.190491,220.537262 
	C849.176208,212.814911 849.291565,205.092300 849.940308,197.072250 
	C850.699463,196.719879 850.885010,196.665054 851.070557,196.610260 
	C851.395020,196.865601 851.719482,197.120941 852.179565,197.659012 
z"/>
<path fill="#C7D3E1" opacity="1.000000" stroke="none" 
	d="
M945.060791,219.394577 
	C944.911560,216.104752 944.843628,213.195435 944.488159,209.757568 
	C944.200684,209.229034 943.915588,209.009628 943.915588,209.009628 
	C943.915588,209.009628 943.951050,208.589325 944.200073,208.092331 
	C944.875366,207.306702 945.301758,207.018051 945.728149,206.729431 
	C950.417603,211.930435 947.265198,217.899872 948.069763,223.481552 
	C947.494019,223.629547 946.918274,223.777542 946.342590,223.925522 
	C945.942383,222.542038 945.542175,221.158569 945.060791,219.394577 
z"/>
<path fill="#D7E0EC" opacity="1.000000" stroke="none" 
	d="
M766.633057,206.925095 
	C767.233826,207.190063 767.496948,207.401047 767.892944,207.829376 
	C767.282715,211.319443 766.461975,214.577179 765.826538,217.870682 
	C765.462158,219.759232 765.398682,221.705841 765.199768,223.626312 
	C764.665283,223.614014 764.130859,223.601715 763.596436,223.589417 
	C763.596436,217.443207 763.596436,211.296982 763.596436,204.274170 
	C764.656067,205.293716 765.475769,206.082413 766.633057,206.925095 
z"/>
<path fill="#D2DDEA" opacity="1.000000" stroke="none" 
	d="
M468.987732,221.316101 
	C468.978546,215.598480 468.978546,210.315933 468.978546,203.557266 
	C470.579895,205.125046 471.734863,205.724274 471.755493,206.360306 
	C471.917358,211.347443 471.921387,216.343002 471.807251,221.332138 
	C471.790771,222.053467 470.885773,222.754486 470.391968,223.464905 
	C469.926941,222.893646 469.461945,222.322403 468.987732,221.316101 
z"/>
<path fill="#D7E0EC" opacity="1.000000" stroke="none" 
	d="
M935.799255,207.689636 
	C931.534485,211.090546 933.373779,215.857468 933.108704,220.579773 
	C933.148499,221.491028 933.094299,221.954956 933.041138,222.770752 
	C930.194702,224.166977 930.049255,222.362213 930.053833,220.326202 
	C930.064636,215.531250 930.043518,210.736221 930.032715,205.473099 
	C930.772278,204.938919 931.514526,204.872849 932.620117,205.216049 
	C933.499329,205.905899 934.015015,206.186478 934.843567,206.777191 
	C935.370605,207.288086 935.584900,207.488861 935.799255,207.689636 
z"/>
<path fill="#D7E0EC" opacity="1.000000" stroke="none" 
	d="
M660.098694,219.071808 
	C660.188477,217.525833 660.540710,216.115311 660.814941,214.343933 
	C660.800476,211.488297 660.784363,208.987091 660.984314,206.503265 
	C661.033752,205.889297 661.785034,205.331833 662.213806,204.748413 
	C662.774231,205.364502 663.803101,205.967453 663.820862,206.598801 
	C663.961060,211.593384 663.968018,216.595398 663.796997,221.587646 
	C663.783997,221.967270 662.089111,222.289276 661.183105,222.287140 
	C660.913818,221.026566 660.637512,220.116898 660.098694,219.071808 
z"/>
<path fill="#CBD6E3" opacity="1.000000" stroke="none" 
	d="
M861.850464,205.150635 
	C862.190491,204.733139 862.445923,204.665268 863.086182,204.476379 
	C863.471008,204.355392 863.595581,204.316055 863.595581,204.316055 
	C863.776489,204.495667 863.957397,204.675293 864.470459,205.044098 
	C864.624023,205.780045 864.445496,206.326828 864.446655,207.015701 
	C864.639648,211.800262 864.653015,216.442749 864.782227,221.537628 
	C864.259644,222.547775 863.621216,223.105515 862.554871,223.300781 
	C861.966431,220.599792 861.805969,218.261292 861.645508,215.922775 
	C861.683044,214.575089 861.720703,213.227386 861.792725,211.070404 
	C861.768127,209.150803 861.709167,208.040527 861.650146,206.930237 
	C861.688721,206.453568 861.727295,205.976913 861.850464,205.150635 
z"/>
<path fill="#D7E0EC" opacity="1.000000" stroke="none" 
	d="
M945.526245,206.430298 
	C945.301758,207.018051 944.875366,207.306702 944.188965,207.881729 
	C941.452759,207.900116 938.976685,207.632111 936.149902,207.526871 
	C935.584900,207.488861 935.370605,207.288086 935.011292,206.572144 
	C935.241760,205.693481 935.617249,205.330002 935.992798,204.966537 
	C939.103333,205.354752 942.213806,205.742966 945.526245,206.430298 
z"/>
</svg>
