<svg xmlns="http://www.w3.org/2000/svg" viewBox="0 0 1095 311">
<path fill="#05BBF7" opacity="1.000000" stroke="none" 
	d="
M211.466095,142.922760 
	C209.594406,141.041916 206.949158,139.421356 206.783600,137.578094 
	C206.151428,130.539368 205.599365,123.343102 206.431976,116.374687 
	C207.012085,111.519409 211.690140,109.322075 216.550583,108.973419 
	C220.200302,108.711617 223.881500,108.926277 227.543015,108.783516 
	C234.417084,108.515503 238.709961,104.325562 239.033234,97.455307 
	C239.221054,93.464027 239.015244,89.455620 239.139755,85.459686 
	C239.359924,78.394470 243.771057,74.060974 250.859863,73.918777 
	C254.857361,73.838577 258.861511,73.812325 262.856476,73.946289 
	C269.045685,74.153847 273.163330,78.079376 273.511627,84.258331 
	C273.755127,88.578705 273.787994,92.927689 273.609894,97.251320 
	C273.316559,104.373459 268.928528,108.626038 261.842926,108.877968 
	C259.013428,108.978569 256.177246,108.871826 253.345062,108.918495 
	C245.454117,109.048523 240.576340,113.648560 240.135452,121.548889 
	C239.940704,125.038101 240.162659,128.548630 240.047653,132.044617 
	C239.797165,139.660049 235.697968,143.918503 228.204758,143.918350 
	C222.746948,143.918228 217.289154,143.379425 211.466095,142.922760 
z"/>
<path fill="#036ED1" opacity="1.000000" stroke="none" 
	d="
M239.665039,171.849274 
	C239.963348,182.333801 243.915497,186.264984 253.667953,186.285950 
	C256.665527,186.292389 259.671417,186.240280 262.658661,186.438797 
	C268.858490,186.850830 273.055725,190.628876 273.547241,196.732285 
	C273.920044,201.361725 273.935242,206.075806 273.521088,210.699509 
	C272.921265,217.395996 268.599091,220.990906 261.834595,221.054077 
	C258.004150,221.089859 254.170853,221.173416 250.343155,221.072281 
	C243.339355,220.887283 239.267685,216.823105 239.034302,209.793152 
	C238.912796,206.132767 239.127197,202.459290 238.953491,198.802963 
	C238.584366,191.033615 234.288300,186.954056 226.547028,186.837204 
	C223.716095,186.794464 220.883514,186.841446 218.053268,186.777344 
	C209.697006,186.588104 205.384521,182.359512 205.206970,174.104919 
	C205.124634,170.276352 205.054123,166.435120 205.264755,162.615448 
	C205.605591,156.434204 209.604797,152.380692 215.689178,152.059204 
	C220.152115,151.823410 224.666031,151.537125 229.096619,151.940018 
	C235.976151,152.565598 239.090866,155.994858 239.636292,162.891800 
	C239.858765,165.705032 239.668030,168.550919 239.665039,171.849274 
z"/>
<path fill="#036DD0" opacity="1.000000" stroke="none" 
	d="
M161.842163,121.581818 
	C159.922714,111.661903 156.596832,108.939186 146.812775,108.867722 
	C131.545868,108.756210 129.173340,106.373688 129.216171,91.198120 
	C129.222275,89.033722 129.163345,86.866974 129.243576,84.705368 
	C129.461304,78.839699 133.291519,74.578156 139.133377,74.150909 
	C143.607285,73.823700 148.127228,73.782234 152.609070,73.991524 
	C158.653595,74.273758 162.790085,78.566551 163.035995,84.595032 
	C163.191925,88.417885 163.013397,92.253128 163.072586,96.081459 
	C163.190521,103.709618 167.760712,108.479706 175.444046,108.922348 
	C178.098938,109.075310 180.770157,108.937317 183.433868,108.945969 
	C190.909897,108.970261 195.054352,112.411606 195.718674,119.794670 
	C196.134750,124.418915 196.101761,129.128357 195.771530,133.764053 
	C195.320312,140.098114 191.435013,143.646698 184.981033,143.949203 
	C180.994339,144.136047 176.986603,144.110123 172.997269,143.952820 
	C166.075577,143.679947 162.244156,139.878357 161.939285,133.007339 
	C161.777069,129.351517 161.889130,125.683510 161.842163,121.581818 
z"/>
<path fill="#05BAF7" opacity="1.000000" stroke="none" 
	d="
M164.178925,156.363861 
	C167.491089,154.650528 170.500366,152.178802 173.641479,151.998032 
	C190.500839,151.027771 197.055649,150.937485 195.842300,171.651352 
	C195.793716,172.480652 195.861649,173.316147 195.852631,174.148499 
	C195.762878,182.430725 191.477539,187.078964 183.106781,186.584747 
	C165.545380,185.547943 162.282272,191.732834 162.970871,206.818436 
	C163.438797,217.070084 159.192596,221.083160 149.085434,221.147934 
	C145.922241,221.168198 142.751389,221.242661 139.596695,221.066116 
	C133.709839,220.736664 129.642365,216.768631 129.367096,210.856293 
	C129.150528,206.205460 129.170898,201.523834 129.433044,196.875473 
	C129.758087,191.112366 133.918411,187.072845 139.760544,186.634293 
	C142.910172,186.397873 146.083847,186.488541 149.246262,186.414520 
	C157.596710,186.219040 161.527466,182.097290 162.007858,173.751343 
	C162.336761,168.037079 163.272446,162.357727 164.178925,156.363861 
z"/>
</svg>
